<svg width="3000" height="3000" viewBox="0 0 3000 3000" fill="none" xmlns="http://www.w3.org/2000/svg">
<rect width="3000" height="3000" rx="250" fill="white"/>
<path d="M601.431 1312C615.072 1288.37 621.893 1276.56 630.798 1272.59C638.565 1269.14 647.435 1269.14 655.202 1272.59C664.107 1276.56 670.928 1288.37 684.569 1312L817.937 1543C831.579 1566.63 838.399 1578.44 837.38 1588.14C836.492 1596.59 832.057 1604.27 825.178 1609.27C817.292 1615 803.651 1615 776.368 1615H509.632C482.349 1615 468.708 1615 460.822 1609.27C453.943 1604.27 449.508 1596.59 448.62 1588.14C447.601 1578.44 454.421 1566.63 468.063 1543L601.431 1312Z" fill="#1DB954"/>
<path d="M1246.43 937C1260.07 913.372 1266.89 901.558 1275.8 897.594C1283.57 894.135 1292.43 894.135 1300.2 897.594C1309.11 901.558 1315.93 913.372 1329.57 937L1462.94 1168C1476.58 1191.63 1483.4 1203.44 1482.38 1213.14C1481.49 1221.59 1477.06 1229.27 1470.18 1234.27C1462.29 1240 1448.65 1240 1421.37 1240H1154.63C1127.35 1240 1113.71 1240 1105.82 1234.27C1098.94 1229.27 1094.51 1221.59 1093.62 1213.14C1092.6 1203.44 1099.42 1191.63 1113.06 1168L1246.43 937Z" fill="#61CE87"/>
<path d="M1420.87 1239.51C1448.16 1239.51 1461.8 1239.51 1469.68 1245.24C1476.56 1250.23 1481 1257.91 1481.89 1266.37C1482.91 1276.06 1476.08 1287.88 1462.44 1311.51L1329.08 1542.51C1315.43 1566.13 1308.61 1577.95 1299.71 1581.91C1291.94 1585.37 1283.07 1585.37 1275.3 1581.91C1266.4 1577.95 1259.58 1566.13 1245.94 1542.51L1112.57 1311.51C1098.93 1287.88 1092.11 1276.06 1093.13 1266.37C1094.01 1257.91 1098.45 1250.23 1105.33 1245.24C1113.21 1239.51 1126.86 1239.51 1154.14 1239.51L1420.87 1239.51Z" fill="#61CE87"/>
<path d="M2103.42 1681C2117.06 1657.37 2123.88 1645.56 2132.79 1641.59C2140.55 1638.14 2149.42 1638.14 2157.19 1641.59C2166.09 1645.56 2172.92 1657.37 2186.56 1681L2319.92 1912C2333.57 1935.63 2340.39 1947.44 2339.37 1957.14C2338.48 1965.59 2334.04 1973.27 2327.17 1978.27C2319.28 1984 2305.64 1984 2278.36 1984H2011.62C1984.34 1984 1970.69 1984 1962.81 1978.27C1955.93 1973.27 1951.5 1965.59 1950.61 1957.14C1949.59 1947.44 1956.41 1935.63 1970.05 1912L2103.42 1681Z" fill="#1DB954"/>
<path d="M813.431 1681C827.072 1657.37 833.893 1645.56 842.798 1641.59C850.565 1638.14 859.435 1638.14 867.202 1641.59C876.107 1645.56 882.928 1657.37 896.569 1681L1029.94 1912C1043.58 1935.63 1050.4 1947.44 1049.38 1957.14C1048.49 1965.59 1044.06 1973.27 1037.18 1978.27C1029.29 1984 1015.65 1984 988.368 1984H721.632C694.349 1984 680.708 1984 672.822 1978.27C665.943 1973.27 661.508 1965.59 660.62 1957.14C659.601 1947.44 666.421 1935.63 680.063 1912L813.431 1681Z" fill="#1DB954"/>
<path d="M2494.87 1613.51C2522.16 1613.51 2535.8 1613.51 2543.68 1619.24C2550.56 1624.23 2555 1631.91 2555.89 1640.37C2556.91 1650.06 2550.08 1661.88 2536.44 1685.51L2403.08 1916.51C2389.43 1940.13 2382.61 1951.95 2373.71 1955.91C2365.94 1959.37 2357.07 1959.37 2349.3 1955.91C2340.4 1951.95 2333.58 1940.13 2319.94 1916.51L2186.57 1685.51C2172.93 1661.88 2166.11 1650.06 2167.13 1640.37C2168.01 1631.91 2172.45 1624.23 2179.33 1619.24C2187.21 1613.51 2200.86 1613.51 2228.14 1613.51L2494.87 1613.51Z" fill="#1DB954"/>
<path d="M2536.44 1542.51C2550.08 1566.13 2556.91 1577.95 2555.89 1587.64C2555 1596.1 2550.56 1603.78 2543.68 1608.78C2535.8 1614.51 2522.16 1614.51 2494.87 1614.51L2228.14 1614.51C2200.86 1614.51 2187.21 1614.51 2179.33 1608.78C2172.45 1603.78 2168.01 1596.1 2167.13 1587.64C2166.11 1577.95 2172.93 1566.13 2186.57 1542.51L2319.94 1311.51C2333.58 1287.88 2340.4 1276.06 2349.3 1272.1C2357.07 1268.64 2365.94 1268.64 2373.71 1272.1C2382.61 1276.06 2389.43 1287.88 2403.08 1311.51L2536.44 1542.51Z" fill="#1DB954"/>
<path d="M2278.87 1239.51C2306.16 1239.51 2319.8 1239.51 2327.68 1245.24C2334.56 1250.23 2339 1257.91 2339.89 1266.37C2340.91 1276.06 2334.08 1287.88 2320.44 1311.51L2187.08 1542.51C2173.43 1566.13 2166.61 1577.95 2157.71 1581.91C2149.94 1585.37 2141.07 1585.37 2133.3 1581.91C2124.4 1577.95 2117.58 1566.13 2103.94 1542.51L1970.57 1311.51C1956.93 1287.88 1950.11 1276.06 1951.13 1266.37C1952.01 1257.91 1956.45 1250.23 1963.33 1245.24C1971.21 1239.51 1984.86 1239.51 2012.14 1239.51L2278.87 1239.51Z" fill="#1DB954"/>
<path d="M2104.43 937C2118.07 913.372 2124.89 901.558 2133.8 897.594C2141.57 894.135 2150.43 894.135 2158.2 897.594C2167.11 901.558 2173.93 913.372 2187.57 937L2320.94 1168C2334.58 1191.63 2341.4 1203.44 2340.38 1213.14C2339.49 1221.59 2335.06 1229.27 2328.18 1234.27C2320.29 1240 2306.65 1240 2279.37 1240H2012.63C1985.35 1240 1971.71 1240 1963.82 1234.27C1956.94 1229.27 1952.51 1221.59 1951.62 1213.14C1950.6 1203.44 1957.42 1191.63 1971.06 1168L2104.43 937Z" fill="#1DB954"/>
<path d="M2064.87 866C2092.16 866 2105.8 866 2113.68 871.729C2120.56 876.727 2125 884.408 2125.89 892.864C2126.91 902.558 2120.08 914.372 2106.44 938L1973.08 1169C1959.43 1192.63 1952.61 1204.44 1943.71 1208.41C1935.94 1211.86 1927.07 1211.86 1919.3 1208.41C1910.4 1204.44 1903.58 1192.63 1889.94 1169L1756.57 938C1742.93 914.372 1736.11 902.558 1737.13 892.864C1738.01 884.408 1742.45 876.727 1749.33 871.729C1757.21 866 1770.86 866 1798.14 866L2064.87 866Z" fill="#1DB954"/>
<path d="M1892.44 1167.51C1906.08 1191.13 1912.91 1202.95 1911.89 1212.64C1911 1221.1 1906.56 1228.78 1899.68 1233.78C1891.8 1239.51 1878.16 1239.51 1850.87 1239.51L1584.14 1239.51C1556.86 1239.51 1543.21 1239.51 1535.33 1233.78C1528.45 1228.78 1524.01 1221.1 1523.13 1212.64C1522.11 1202.95 1528.93 1191.13 1542.57 1167.51L1675.94 936.506C1689.58 912.879 1696.4 901.065 1705.3 897.1C1713.07 893.642 1721.94 893.642 1729.71 897.1C1738.61 901.065 1745.43 912.879 1759.08 936.506L1892.44 1167.51Z" fill="#61CE87"/>
<path d="M1850.87 1239.51C1878.16 1239.51 1891.8 1239.51 1899.68 1245.24C1906.56 1250.23 1911 1257.91 1911.89 1266.37C1912.91 1276.06 1906.08 1287.88 1892.44 1311.51L1759.08 1542.51C1745.43 1566.13 1738.61 1577.95 1729.71 1581.91C1721.94 1585.37 1713.07 1585.37 1705.3 1581.91C1696.4 1577.95 1689.58 1566.13 1675.94 1542.51L1542.57 1311.51C1528.93 1287.88 1522.11 1276.06 1523.13 1266.37C1524.01 1257.91 1528.45 1250.23 1535.33 1245.24C1543.21 1239.51 1556.86 1239.51 1584.14 1239.51L1850.87 1239.51Z" fill="#61CE87"/>
<path d="M775.874 1613.51C803.157 1613.51 816.799 1613.51 824.685 1619.24C831.563 1624.23 835.998 1631.91 836.887 1640.37C837.906 1650.06 831.085 1661.88 817.443 1685.51L684.076 1916.51C670.434 1940.13 663.613 1951.95 654.708 1955.91C646.941 1959.37 638.071 1959.37 630.304 1955.91C621.399 1951.95 614.579 1940.13 600.937 1916.51L467.569 1685.51C453.928 1661.88 447.107 1650.06 448.126 1640.37C449.015 1631.91 453.449 1624.23 460.328 1619.24C468.214 1613.51 481.855 1613.51 509.138 1613.51L775.874 1613.51Z" fill="#1DB954"/>
<path d="M1677.44 1541.51C1691.08 1565.13 1697.91 1576.95 1696.89 1586.64C1696 1595.1 1691.56 1602.78 1684.68 1607.78C1676.8 1613.51 1663.16 1613.51 1635.87 1613.51L1369.14 1613.51C1341.86 1613.51 1328.21 1613.51 1320.33 1607.78C1313.45 1602.78 1309.01 1595.1 1308.13 1586.64C1307.11 1576.95 1313.93 1565.13 1327.57 1541.51L1460.94 1310.51C1474.58 1286.88 1481.4 1275.06 1490.3 1271.1C1498.07 1267.64 1506.94 1267.64 1514.71 1271.1C1523.61 1275.06 1530.43 1286.88 1544.08 1310.51L1677.44 1541.51Z" fill="#1DB954"/>
<path d="M987.874 1239.51C1015.16 1239.51 1028.8 1239.51 1036.68 1245.24C1043.56 1250.23 1048 1257.91 1048.89 1266.37C1049.91 1276.06 1043.08 1287.88 1029.44 1311.51L896.076 1542.51C882.434 1566.13 875.613 1577.95 866.708 1581.91C858.941 1585.37 850.071 1585.37 842.304 1581.91C833.399 1577.95 826.579 1566.13 812.937 1542.51L679.569 1311.51C665.928 1287.88 659.107 1276.06 660.126 1266.37C661.015 1257.91 665.449 1250.23 672.328 1245.24C680.214 1239.51 693.855 1239.51 721.138 1239.51L987.874 1239.51Z" fill="#1DB954"/>
<path d="M895.569 941.506C881.928 917.879 875.107 906.065 876.126 896.37C877.015 887.915 881.449 880.233 888.328 875.236C896.214 869.506 909.855 869.506 937.138 869.506L1203.87 869.506C1231.16 869.506 1244.8 869.506 1252.68 875.236C1259.56 880.233 1264 887.915 1264.89 896.37C1265.91 906.065 1259.08 917.879 1245.44 941.506L1112.08 1172.51C1098.43 1196.13 1091.61 1207.95 1082.71 1211.91C1074.94 1215.37 1066.07 1215.37 1058.3 1211.91C1049.4 1207.95 1042.58 1196.13 1028.94 1172.51L895.569 941.506Z" fill="#1DB954"/>
<path d="M813.431 937C827.072 913.372 833.893 901.558 842.798 897.594C850.565 894.135 859.435 894.135 867.202 897.594C876.107 901.558 882.928 913.372 896.569 937L1029.94 1168C1043.58 1191.63 1050.4 1203.44 1049.38 1213.14C1048.49 1221.59 1044.06 1229.27 1037.18 1234.27C1029.29 1240 1015.65 1240 988.368 1240H721.632C694.349 1240 680.708 1240 672.822 1234.27C665.943 1229.27 661.508 1221.59 660.62 1213.14C659.601 1203.44 666.421 1191.63 680.063 1168L813.431 937Z" fill="#1DB954"/>
</svg>
